<svg width="47" height="41" xmlns="http://www.w3.org/2000/svg"><defs><linearGradient x1="170.649%" y1="50%" x2="-44.317%" y2="170.246%" id="a"><stop stop-color="#FF52C1" offset="0%"/><stop stop-color="#9952FF" offset="100%"/></linearGradient></defs><g transform="translate(-284 -1628)" fill="url(#a)" fill-rule="evenodd"><path d="M307.416 1629.333a3.136 3.136 0 00-3.132 3.132v.76a3.135 3.135 0 003.13 3.13h.002a3.11 3.11 0 002.213-.916 3.112 3.112 0 00.918-2.215v-.758a3.11 3.11 0 00-.917-2.214 3.112 3.112 0 00-2.214-.919zm0 8.19h-.002a4.302 4.302 0 01-4.296-4.299v-.76a4.303 4.303 0 014.298-4.297 4.273 4.273 0 013.039 1.26 4.27 4.27 0 011.259 3.039v.758a4.27 4.27 0 01-1.26 3.04 4.265 4.265 0 01-3.038 1.258zm-3.491 31.236h-1.167l.003-23.916h1.166l-.002 23.916m8.142 0H310.9l.003-23.916h1.166l-.002 23.916m-4.07 0h-1.168v-15.07h1.168v15.07"/><path d="M313.534 1654.273h-2.048v-1.166h2.048a.77.77 0 00.768-.77v-9.357a2.832 2.832 0 00-1.943-2.694 15.808 15.808 0 00-9.887-.001 2.832 2.832 0 00-1.944 2.694l-.002 9.358a.77.77 0 00.77.768h2.047v1.167h-2.049a1.938 1.938 0 01-1.934-1.937v-9.356a3.999 3.999 0 012.745-3.801 16.989 16.989 0 0110.621 0 3.996 3.996 0 012.743 3.802v9.358a1.937 1.937 0 01-1.935 1.935m8.573-22.347a3.134 3.134 0 00-3.131 3.13v.76c0 .835.326 1.622.917 2.214.592.59 1.378.917 2.214.917a3.135 3.135 0 003.132-3.132v-.758a3.135 3.135 0 00-3.132-3.131zm0 8.187a4.27 4.27 0 01-3.039-1.258 4.27 4.27 0 01-1.259-3.04v-.76a4.302 4.302 0 014.298-4.296 4.303 4.303 0 014.298 4.298v.758a4.303 4.303 0 01-4.298 4.298zm-29.384-8.191a3.11 3.11 0 00-2.214.917 3.11 3.11 0 00-.917 2.215v.758a3.135 3.135 0 003.13 3.131 3.136 3.136 0 003.133-3.13v-.76a3.135 3.135 0 00-3.131-3.13h-.001zm0 8.188a4.302 4.302 0 01-4.297-4.298v-.758c0-1.15.447-2.229 1.259-3.04a4.269 4.269 0 013.038-1.258 4.303 4.303 0 014.299 4.298v.759a4.304 4.304 0 01-4.3 4.297zm34.036 28.65h-1.167l.001-21.325h1.167l-.001 21.325"/><path d="M328.224 1656.864h-2.047v-1.166h2.047a.77.77 0 00.769-.768l.001-9.359a2.835 2.835 0 00-1.943-2.694 15.811 15.811 0 00-9.888-.001l-.367-1.107a16.997 16.997 0 0110.62.001 3.999 3.999 0 012.745 3.801l-.001 9.359a1.937 1.937 0 01-1.936 1.934m-9.607 11.896h-1.167l.001-21.326h1.167l-.001 21.326m4.07 0h-1.166v-12.48h1.167v12.48m-33.456-.004h-1.167l.003-21.325h1.166l-.002 21.325m4.072 0h-1.167l.001-12.478h1.167l-.001 12.478m4.07.001h-1.165v-21.325h1.167l-.002 21.325"/><path d="M288.65 1656.86h-2.048a1.937 1.937 0 01-1.935-1.935v-9.357a3.997 3.997 0 012.745-3.801 16.956 16.956 0 0110.621 0l-.367 1.108a15.783 15.783 0 00-9.887-.001 2.834 2.834 0 00-1.944 2.694l-.002 9.357a.77.77 0 00.77.768h2.047v1.167"/></g></svg>