<?xml version="1.0" encoding="utf-8"?>
<!-- Generator: Adobe Illustrator 17.0.1, SVG Export Plug-In . SVG Version: 6.00 Build 0)  -->
<!DOCTYPE svg PUBLIC "-//W3C//DTD SVG 1.1//EN" "http://www.w3.org/Graphics/SVG/1.1/DTD/svg11.dtd">
<svg version="1.1" id="Warstwa_1" xmlns="http://www.w3.org/2000/svg" xmlns:xlink="http://www.w3.org/1999/xlink" x="0px" y="0px"
	 width="86px" height="26px" viewBox="0 0 86 26" enable-background="new 0 0 86 26" xml:space="preserve">
<g enable-background="new    ">
	<path fill="#15202A" d="M17.28,14.008c-1.589,1.27-3.685,1.904-6.288,1.904h-4.8c-0.235,0-0.352,0.117-0.352,0.352v8
		C5.84,24.755,5.563,25,5.008,25H0.912c-0.256,0-0.432-0.053-0.528-0.16C0.288,24.733,0.24,24.573,0.24,24.36V1.864
		c0-0.405,0.17-0.608,0.512-0.608h9.6c1.771,0,3.354,0.272,4.752,0.816c1.397,0.544,2.506,1.371,3.328,2.479
		c0.821,1.109,1.232,2.476,1.232,4.097C19.664,10.952,18.869,12.739,17.28,14.008z M12.848,6.088
		C12.144,5.533,11.194,5.256,10,5.256H6.448c-0.214,0-0.368,0.043-0.464,0.128C5.888,5.47,5.84,5.619,5.84,5.832v5.472
		c0,0.214,0.032,0.368,0.096,0.464C6,11.864,6.117,11.912,6.288,11.912h3.936c1.13,0,2.026-0.299,2.688-0.896
		c0.661-0.597,0.992-1.418,0.992-2.464C13.904,7.464,13.552,6.643,12.848,6.088z"/>
	<path fill="#15202A" d="M28.208,1.256c0.341,0,0.512,0.192,0.512,0.576v22.4c0,0.277-0.064,0.475-0.192,0.592S28.176,25,27.856,25
		h-4.032c-0.256,0-0.438-0.053-0.544-0.16c-0.107-0.106-0.16-0.276-0.16-0.512V1.864c0-0.405,0.17-0.608,0.512-0.608H28.208z"/>
	<path fill="#15202A" d="M52.592,1.256c0.277,0,0.416,0.16,0.416,0.48v22.752c0,0.149-0.06,0.271-0.176,0.368
		C52.714,24.952,52.57,25,52.399,25h-3.231c-0.192,0-0.342-0.021-0.449-0.064c-0.106-0.042-0.223-0.148-0.352-0.319L38.16,10.28
		c-0.086-0.106-0.166-0.149-0.24-0.128c-0.075,0.021-0.112,0.085-0.112,0.191v14.08v0.096c0,0.172-0.048,0.294-0.144,0.368
		C37.567,24.963,37.402,25,37.167,25h-3.328c-0.427,0-0.64-0.181-0.64-0.544V1.864c0-0.405,0.192-0.608,0.576-0.608h3.872
		c0.256,0,0.437,0.027,0.544,0.08c0.106,0.054,0.234,0.188,0.384,0.4l9.408,13.407c0.128,0.172,0.234,0.257,0.32,0.257
		c0.106,0,0.159-0.117,0.159-0.353V1.832c0-0.384,0.192-0.576,0.576-0.576H52.592z"/>
	<path fill="#15202A" d="M61.695,23.816c-1.611-1.003-2.854-2.416-3.729-4.24s-1.312-3.941-1.312-6.353
		c0-2.475,0.458-4.64,1.376-6.496c0.917-1.855,2.208-3.284,3.871-4.287c1.664-1.003,3.585-1.505,5.761-1.505
		c1.664,0,3.185,0.32,4.56,0.961c1.377,0.64,2.496,1.477,3.36,2.512s1.402,2.139,1.616,3.312c0.043,0.128,0.064,0.288,0.064,0.48
		c0,0.234-0.14,0.363-0.416,0.384l-4.225,0.64c-0.171,0-0.288-0.037-0.352-0.111c-0.064-0.075-0.117-0.208-0.16-0.4
		c-0.214-1.109-0.715-2.026-1.504-2.752c-0.79-0.725-1.814-1.088-3.072-1.088c-1.643,0-2.891,0.651-3.744,1.952
		c-0.854,1.302-1.279,3.371-1.279,6.208c0,2.965,0.447,5.099,1.344,6.399c0.896,1.302,2.186,1.952,3.871,1.952
		c1.28,0,2.305-0.347,3.072-1.04c0.768-0.692,1.27-1.563,1.504-2.607l0.064-0.929c0.021-0.042,0.031-0.106,0.031-0.191
		c0-0.192-0.117-0.288-0.352-0.288h-3.871c-0.172,0-0.3-0.043-0.385-0.128c-0.086-0.085-0.128-0.225-0.128-0.416v-2.4
		c0-0.298,0.171-0.448,0.513-0.448l8.543,0.032c0.299,0,0.528,0.069,0.688,0.208c0.159,0.14,0.239,0.326,0.239,0.561V24.52
		c0,0.15-0.043,0.268-0.127,0.353C77.434,24.957,77.316,25,77.167,25h-1.024c-0.362,0-0.64-0.171-0.832-0.512l-0.928-2.305
		c-0.064-0.148-0.171-0.138-0.32,0.032c-0.746,0.918-1.637,1.664-2.672,2.24s-2.384,0.864-4.047,0.864
		C65.188,25.32,63.306,24.819,61.695,23.816z"/>
</g>
<g enable-background="new    ">
	<path fill="#4C7BF3" d="M85.968,24.232c0,0.277-0.069,0.475-0.208,0.592S85.393,25,85.072,25h-3.776
		c-0.47,0-0.704-0.224-0.704-0.672v-4.064c0-0.191,0.049-0.336,0.145-0.432s0.219-0.144,0.367-0.144h4.385
		c0.32,0,0.479,0.181,0.479,0.544V24.232z"/>
</g>
</svg>
